<?xml version="1.0" encoding="utf-8"?>
<!-- Generator: Adobe Illustrator 27.1.1, SVG Export Plug-In . SVG Version: 6.00 Build 0)  -->
<svg version="1.1" id="Layer_1" xmlns="http://www.w3.org/2000/svg" xmlns:xlink="http://www.w3.org/1999/xlink" x="0px" y="0px"
	 viewBox="0 0 30 30" style="enable-background:new 0 0 30 30;" xml:space="preserve">
<style type="text/css">
	.st0{fill:url(#SVGID_1_);stroke:url(#SVGID_00000103966331259807343680000009317944899812443266_);stroke-miterlimit:10;}
	.st1{fill:#FFFFFF;stroke:#FFFFFF;stroke-width:2;stroke-linecap:round;stroke-linejoin:round;stroke-miterlimit:10;}
</style>
<linearGradient id="SVGID_1_" gradientUnits="userSpaceOnUse" x1="3" y1="15" x2="27" y2="15">
	<stop  offset="0" style="stop-color:#652A9A"/>
	<stop  offset="1" style="stop-color:#292170"/>
</linearGradient>
<linearGradient id="SVGID_00000133515639699375536410000007494448426975483044_" gradientUnits="userSpaceOnUse" x1="2.5" y1="15" x2="27.5" y2="15">
	<stop  offset="0" style="stop-color:#652A9A"/>
	<stop  offset="1" style="stop-color:#292170"/>
</linearGradient>
<path style="fill:url(#SVGID_1_);stroke:url(#SVGID_00000133515639699375536410000007494448426975483044_);stroke-miterlimit:10;" d="
	M26.7,12.3c-2.1,0.4-4,0-4.7-1.3s-0.2-3.1,1.3-4.7c-1.3-1.3-3-2.2-4.8-2.8C17.8,5.6,16.5,7,15,7s-2.8-1.4-3.5-3.5
	C9.7,4.1,8.1,5,6.8,6.3c1.5,1.6,2,3.5,1.3,4.7c-0.7,1.3-2.6,1.7-4.7,1.3C3.1,13.1,3,14.1,3,15s0.1,1.9,0.3,2.7c2.1-0.4,4,0,4.7,1.3
	s0.2,3.1-1.3,4.7c1.3,1.3,3,2.2,4.8,2.8c0.7-2.1,2-3.5,3.5-3.5s2.8,1.4,3.5,3.5c1.8-0.5,3.4-1.5,4.8-2.8c-1.5-1.6-2-3.5-1.3-4.7
	c0.7-1.3,2.6-1.7,4.7-1.3c0.2-0.9,0.3-1.8,0.3-2.7S26.9,13.1,26.7,12.3z"/>
<circle class="st1" cx="15" cy="15" r="3"/>
</svg>
