<?xml version="1.0" encoding="utf-8"?>
<!-- Generator: Adobe Illustrator 27.1.1, SVG Export Plug-In . SVG Version: 6.00 Build 0)  -->
<svg version="1.1" id="Layer_1" xmlns="http://www.w3.org/2000/svg" xmlns:xlink="http://www.w3.org/1999/xlink" x="0px" y="0px"
	 viewBox="0 0 800 800" style="enable-background:new 0 0 800 800;" xml:space="preserve">
<style type="text/css">
	.st0{fill:url(#SVGID_1_);}
	.st1{fill:url(#SVGID_00000045587913468533229740000014928109638393842084_);}
</style>
<linearGradient id="SVGID_1_" gradientUnits="userSpaceOnUse" x1="37.27" y1="425.04" x2="570.55" y2="425.04">
	<stop  offset="0" style="stop-color:#652A9A"/>
	<stop  offset="1" style="stop-color:#292170"/>
</linearGradient>
<path class="st0" d="M441.1,408.6c33.6-34.5,54.3-81.7,54.3-133.6c0-105.7-85.9-191.6-191.6-191.6c-105.7,0-191.6,85.9-191.6,191.6
	c0,51.9,20.7,99,54.4,133.6C91.7,432.4,37.3,502.5,37.3,585.2v73c0,59.8,48.6,108.4,108.4,108.4H462c59.8,0,108.4-48.7,108.6-108.4
	v-73C570.5,502.5,516.1,432.3,441.1,408.6z M303.8,150.1c68.9,0,125,56.1,125,125c0,68.9-56.1,125-125,125c-68.9,0-125-56.1-125-125
	C178.8,206.2,234.9,150.1,303.8,150.1z M503.8,658.1c0,23-18.8,41.8-41.8,41.8H145.7c-23,0-41.8-18.8-41.8-41.8v-73
	c0-65.2,53-118.4,118.4-118.4h163c65.3,0,118.4,53.1,118.4,118.4V658.1z"/>
<linearGradient id="SVGID_00000035522701098830528460000007915179449505201080_" gradientUnits="userSpaceOnUse" x1="470.3125" y1="399.9609" x2="770.3906" y2="399.9609">
	<stop  offset="0" style="stop-color:#292170"/>
	<stop  offset="1" style="stop-color:#652A9A"/>
</linearGradient>
<path style="fill:url(#SVGID_00000035522701098830528460000007915179449505201080_);" d="M661.9,733.3c-18.4,0-33.4-14.9-33.4-33.4
	c0-18.4,14.9-33.4,33.4-33.4c23,0,41.8-18.8,41.8-41.8v-73c0-65.3-53.1-118.4-118.4-118.4h-11.2c-15.5,0-28.9-10.6-32.4-25.7
	c-3.5-15.1,3.8-30.5,17.6-37.5c42.8-21.3,69.5-64.1,69.5-111.8c0-68.9-56.1-125-125-125c-18.4,0-33.4-14.9-33.4-33.4
	s14.9-33.4,33.4-33.4c105.6,0,191.6,85.9,191.6,191.6c0,45.2-15.5,87.4-42.9,120.9c69,27,118,94.2,118,172.6v73
	C770.4,684.7,721.7,733.3,661.9,733.3L661.9,733.3z"/>
</svg>
