<?xml version="1.0" encoding="utf-8"?>
<!-- Generator: Adobe Illustrator 27.1.1, SVG Export Plug-In . SVG Version: 6.00 Build 0)  -->
<svg version="1.1" id="Layer_1" xmlns="http://www.w3.org/2000/svg" xmlns:xlink="http://www.w3.org/1999/xlink" x="0px" y="0px"
	 viewBox="0 0 800 800" style="enable-background:new 0 0 800 800;" xml:space="preserve">
<style type="text/css">
	.st0{fill:url(#SVGID_1_);}
	.st1{fill:url(#SVGID_00000160163083872904484210000006484087633011028632_);}
	.st2{fill:url(#SVGID_00000108287400799675866460000006804398401141622193_);}
	.st3{fill:url(#SVGID_00000020394976325494788320000013349219559990800570_);}
	.st4{fill:url(#SVGID_00000145031971331381926140000007799150650187502761_);}
	.st5{fill:url(#SVGID_00000029039531397184859010000016745455600495588775_);}
	.st6{fill:url(#SVGID_00000088123924148713981220000001937832758282179737_);}
	.st7{fill:url(#SVGID_00000172429494138654541440000000490807316096693433_);}
	.st8{fill:url(#SVGID_00000147928999721475898050000004952383990949897118_);}
	.st9{fill:url(#SVGID_00000134943763760746551060000012496459016553067654_);}
</style>
<linearGradient id="SVGID_1_" gradientUnits="userSpaceOnUse" x1="66.5625" y1="400" x2="733.3594" y2="400">
	<stop  offset="0" style="stop-color:#652A9A"/>
	<stop  offset="1" style="stop-color:#292170"/>
</linearGradient>
<path class="st0" d="M633.4,733.4H166.6c-13.5,0-26.6-2.7-39-7.9c-11.9-5-22.7-12.3-31.8-21.5c-9.1-9.1-16.4-19.8-21.4-31.8
	c-5.2-12.3-7.9-25.5-7.9-38.9V166.6c0-13.4,2.7-26.6,7.9-38.9c5-11.9,12.3-22.7,21.5-31.8c9.1-9.1,19.8-16.3,31.8-21.4
	c12.3-5.2,25.4-7.9,38.9-7.9h466.6c13.5,0,26.6,2.7,39,7.9c11.9,5,22.7,12.3,31.8,21.5c9.1,9.1,16.4,19.8,21.4,31.8
	c5.2,12.3,7.9,25.5,7.9,38.9V250c0,18.4-14.9,33.4-33.4,33.4s-33.4-14.9-33.4-33.4v-83.4c0-4.5-0.9-8.9-2.7-13
	c-1.6-4-4.1-7.5-7.1-10.5c-3.1-3.1-6.6-5.5-10.6-7.2c-4.1-1.7-8.4-2.6-13-2.6H166.6c-4.5,0-8.9,0.9-13,2.6c-4,1.7-7.6,4.1-10.6,7.1
	c-3.1,3.1-5.5,6.6-7.2,10.6c-1.7,4.1-2.7,8.5-2.7,13v466.6c0,4.5,0.9,8.9,2.7,13c1.6,4,4.1,7.5,7.1,10.5c3.1,3.1,6.6,5.5,10.6,7.2
	c4.1,1.7,8.4,2.6,13,2.6h466.6c4.5,0,8.9-0.9,13-2.6c4-1.7,7.6-4.1,10.6-7.1c3.1-3.1,5.5-6.6,7.2-10.6c1.7-4.1,2.7-8.5,2.7-13V550
	c0-18.4,14.9-33.4,33.4-33.4s33.4,14.9,33.4,33.4v83.4c0,13.4-2.7,26.6-7.9,38.9c-5,11.9-12.3,22.7-21.5,31.8
	c-9.1,9.1-19.8,16.3-31.8,21.4C659.9,730.7,646.8,733.4,633.4,733.4z"/>
<linearGradient id="SVGID_00000121995733160031392820000017015699787783528849_" gradientUnits="userSpaceOnUse" x1="366.64" y1="400.07" x2="733.3018" y2="400.07">
	<stop  offset="0" style="stop-color:#292170"/>
	<stop  offset="1" style="stop-color:#652A9A"/>
</linearGradient>
<path style="fill:url(#SVGID_00000121995733160031392820000017015699787783528849_);" d="M727.8,418.5c-0.3,0.5-0.6,0.9-1,1.4
	c-0.3,0.5-0.7,0.9-1,1.3c-0.3,0.4-0.7,0.9-1.1,1.3c0,0,0,0,0,0c-0.4,0.4-0.8,0.8-1.2,1.2c-0.2,0.2-0.3,0.3-0.5,0.5l-99.5,99.5
	c-6.5,6.4-15,9.7-23.5,9.7s-17-3.3-23.6-9.8c-13-13-13-34.1,0-47.1l43.1-43.1H400c-18.4,0-33.4-14.9-33.4-33.4s14.9-33.4,33.4-33.4
	h219.4l-43-43c-13-13-13-34.1,0-47.1c13-13,34.1-13,47.1,0l100,100C734.9,388,736.4,405.5,727.8,418.5z"/>
<linearGradient id="SVGID_00000110457880397319222880000005559789349866998458_" gradientUnits="userSpaceOnUse" x1="730.7379" y1="411.8884" x2="731.5415" y2="411.8884">
	<stop  offset="0" style="stop-color:#652A9A"/>
	<stop  offset="1" style="stop-color:#292170"/>
</linearGradient>
<path style="fill:url(#SVGID_00000110457880397319222880000005559789349866998458_);" d="M730.7,412.9c0.3-0.7,0.6-1.4,0.8-2.1
	C731.3,411.5,731,412.3,730.7,412.9z"/>
<linearGradient id="SVGID_00000131360950497216728210000001640415914021828750_" gradientUnits="userSpaceOnUse" x1="731.5415" y1="410.794" x2="731.5686" y2="410.794">
	<stop  offset="0" style="stop-color:#652A9A"/>
	<stop  offset="1" style="stop-color:#292170"/>
</linearGradient>
<path style="fill:url(#SVGID_00000131360950497216728210000001640415914021828750_);" d="M731.5,410.8
	C731.6,410.8,731.6,410.8,731.5,410.8C731.6,410.8,731.6,410.8,731.5,410.8z"/>
<linearGradient id="SVGID_00000034089596891496395030000015281020951553518473_" gradientUnits="userSpaceOnUse" x1="730.3954" y1="413.341" x2="730.7379" y2="413.341">
	<stop  offset="0" style="stop-color:#652A9A"/>
	<stop  offset="1" style="stop-color:#292170"/>
</linearGradient>
<path style="fill:url(#SVGID_00000034089596891496395030000015281020951553518473_);" d="M730.4,413.7c0.1-0.3,0.2-0.5,0.3-0.8
	C730.6,413.2,730.5,413.5,730.4,413.7z"/>
<linearGradient id="SVGID_00000003787204438381748650000017805163764660103566_" gradientUnits="userSpaceOnUse" x1="721.13" y1="392.4625" x2="733.36" y2="392.4625">
	<stop  offset="0" style="stop-color:#652A9A"/>
	<stop  offset="1" style="stop-color:#292170"/>
</linearGradient>
<path style="fill:url(#SVGID_00000003787204438381748650000017805163764660103566_);" d="M731.6,410.8c3.9-11.6,1.2-24.9-8-34.2
	l-2.4-2.4c7.5,6.1,12.2,15.4,12.2,25.8C733.4,403.8,732.7,407.4,731.6,410.8z"/>
<linearGradient id="SVGID_00000085937539262030889900000014243377393154037894_" gradientUnits="userSpaceOnUse" x1="727.8" y1="417.5943" x2="728.8638" y2="417.5943">
	<stop  offset="0" style="stop-color:#652A9A"/>
	<stop  offset="1" style="stop-color:#292170"/>
</linearGradient>
<path style="fill:url(#SVGID_00000085937539262030889900000014243377393154037894_);" d="M727.8,418.5c0.4-0.6,0.7-1.1,1.1-1.7
	C728.5,417.3,728.2,417.9,727.8,418.5z"/>
<linearGradient id="SVGID_00000021077156919279943250000013121348014762973101_" gradientUnits="userSpaceOnUse" x1="728.8638" y1="416.4603" x2="729.1708" y2="416.4603">
	<stop  offset="0" style="stop-color:#652A9A"/>
	<stop  offset="1" style="stop-color:#292170"/>
</linearGradient>
<path style="fill:url(#SVGID_00000021077156919279943250000013121348014762973101_);" d="M728.9,416.7c0.1-0.2,0.2-0.4,0.3-0.5
	C729.1,416.4,729,416.6,728.9,416.7z"/>
<linearGradient id="SVGID_00000014622863985771145980000002270843364012966797_" gradientUnits="userSpaceOnUse" x1="729.1708" y1="415.4034" x2="729.9905" y2="415.4034">
	<stop  offset="0" style="stop-color:#652A9A"/>
	<stop  offset="1" style="stop-color:#292170"/>
</linearGradient>
<path style="fill:url(#SVGID_00000014622863985771145980000002270843364012966797_);" d="M729.2,416.2c0.3-0.5,0.6-1,0.8-1.6
	C729.7,415.1,729.5,415.7,729.2,416.2z"/>
<linearGradient id="SVGID_00000041253843915363035260000018204852408686147200_" gradientUnits="userSpaceOnUse" x1="729.9905" y1="414.1765" x2="730.3954" y2="414.1765">
	<stop  offset="0" style="stop-color:#652A9A"/>
	<stop  offset="1" style="stop-color:#292170"/>
</linearGradient>
<path style="fill:url(#SVGID_00000041253843915363035260000018204852408686147200_);" d="M730,414.6c0.1-0.3,0.3-0.6,0.4-0.9
	C730.3,414,730.1,414.3,730,414.6z"/>
</svg>
