<?xml version="1.0" encoding="utf-8"?>
<!-- Generator: Adobe Illustrator 27.1.1, SVG Export Plug-In . SVG Version: 6.00 Build 0)  -->
<svg version="1.1" id="Layer_1" xmlns="http://www.w3.org/2000/svg" xmlns:xlink="http://www.w3.org/1999/xlink" x="0px" y="0px"
	 viewBox="0 0 30 30" style="enable-background:new 0 0 30 30;" xml:space="preserve">
<style type="text/css">
	.st0{fill:url(#SVGID_1_);}
	.st1{fill:url(#SVGID_00000130621085594138557090000005517856068673579427_);}
	.st2{fill:url(#SVGID_00000113345586241977967800000010215986789902573489_);}
	.st3{fill:url(#SVGID_00000091734907328751787390000017375304374793498274_);}
	.st4{fill:url(#SVGID_00000132801995996067513300000002011372277131047349_);}
	.st5{fill:url(#SVGID_00000121995000746817090970000000108133361767446437_);}
	.st6{fill:url(#SVGID_00000075142009324281591690000006022494333446202778_);}
	.st7{fill:url(#SVGID_00000036232114229919871530000006812739358574798467_);}
</style>
<g>
	<linearGradient id="SVGID_1_" gradientUnits="userSpaceOnUse" x1="11.7282" y1="4.3015" x2="20.3055" y2="4.3015">
		<stop  offset="0" style="stop-color:#652A9A"/>
		<stop  offset="1" style="stop-color:#292170"/>
	</linearGradient>
	<path class="st0" d="M18.22,2.03c-1.99-1.94-5.19-0.53-5.38,2.12c-0.02,0.34,0.05,0.72,0.11,1.08c0.01,0.04,0,0.07-0.03,0.11
		l-0.7,0.87c-0.03,0.04-0.06,0.04-0.08-0.01c-1.63-3.62,1.92-7.46,5.65-5.78c2.94,1.32,3.39,5.26,0.9,7.27
		c-1.03,0.83-2.27,1.11-3.7,0.82c-0.06-0.01-0.07-0.04-0.03-0.09l0.7-0.86c0.03-0.04,0.07-0.05,0.12-0.05
		C18.72,7.57,20.4,4.16,18.22,2.03z"/>
	
		<linearGradient id="SVGID_00000080908519175692665680000007249140254715802535_" gradientUnits="userSpaceOnUse" x1="5.3299" y1="6.987" x2="17.9448" y2="6.987">
		<stop  offset="0" style="stop-color:#652A9A"/>
		<stop  offset="1" style="stop-color:#292170"/>
	</linearGradient>
	<path style="fill:url(#SVGID_00000080908519175692665680000007249140254715802535_);" d="M9.75,9.26c0.1-0.55,0.06-0.93-0.27-1.38
		C9.03,7.26,8.69,6.85,8.45,6.62c-0.49-0.46-1.07-0.3-1.6-0.42C5.79,5.94,5.17,4.97,5.37,3.92c0.45-2.44,4.36-1.89,3.75,1.06
		c-0.15,0.72,0.41,1.3,0.92,1.9c0.31,0.36,0.51,0.64,0.99,0.79c0.92,0.27,1.61-0.02,2.18-0.73c0.35-0.44,0.82-0.91,0.93-1.42
		c0.1-0.48-0.1-0.92-0.06-1.33c0.12-1.38,1.54-2.19,2.8-1.61c1.59,0.73,1.37,3.12-0.33,3.61c-0.47,0.14-0.97-0.01-1.47,0.29
		c-0.48,0.29-1.52,1.56-1.58,2.14c-0.01,0.07,0.02,0.32,0.07,0.74C13.95,12.39,9.21,12.31,9.75,9.26z"/>
	
		<linearGradient id="SVGID_00000109003506146991847910000017265661487614525846_" gradientUnits="userSpaceOnUse" x1="18.4139" y1="11.6309" x2="27.6518" y2="11.6309">
		<stop  offset="0" style="stop-color:#652A9A"/>
		<stop  offset="1" style="stop-color:#292170"/>
	</linearGradient>
	<path style="fill:url(#SVGID_00000109003506146991847910000017265661487614525846_);" d="M25.23,9.15
		c-0.43-0.07-0.84-0.08-1.22,0.19c-0.49,0.36-1.69,1.19-1.71,1.82c-0.02,0.67-0.11,1.25,0.48,1.77c0.66,0.59,1.1,0.95,1.33,1.08
		c0.37,0.21,0.76,0.16,1.27,0.08c1.22-0.18,2.36,0.82,2.24,2.06c-0.23,2.46-3.81,2.32-3.88-0.1c-0.04-1.19-0.62-1.43-1.42-2.13
		c-0.41-0.36-0.87-0.5-1.39-0.43c-0.41,0.06-0.63,0.09-0.67,0.09c-2.79-0.12-2.36-4.47,0.66-3.79c0.85,0.19,2.04-0.88,2.53-1.42
		c0.26-0.29,0.27-0.69,0.3-1.2c0.07-1.36,1.5-2.22,2.75-1.63C28.6,6.5,27.61,9.55,25.23,9.15z"/>
	
		<linearGradient id="SVGID_00000052790593829843604130000006443784187778493079_" gradientUnits="userSpaceOnUse" x1="-3.516387e-03" y1="13.991" x2="8.6096" y2="13.991">
		<stop  offset="0" style="stop-color:#652A9A"/>
		<stop  offset="1" style="stop-color:#292170"/>
	</linearGradient>
	<path style="fill:url(#SVGID_00000052790593829843604130000006443784187778493079_);" d="M7.49,14.24c0.1-2.37-2.11-4.04-4.36-3.19
		C0.61,12,0.47,15.61,2.88,16.83c0.56,0.28,1.17,0.38,1.85,0.29c0.17-0.02,0.34-0.04,0.52-0.04c0.04,0,0.08,0.01,0.11,0.04
		l0.85,0.69c0.03,0.03,0.03,0.05-0.01,0.07c-3.83,1.68-7.69-2.24-5.61-5.98c2.39-4.3,9.05-1.76,7.9,3.15
		c-0.01,0.04-0.03,0.04-0.05,0.02l-0.88-0.72C7.51,14.32,7.49,14.28,7.49,14.24z"/>
	
		<linearGradient id="SVGID_00000147925823087558831360000010258200595477029515_" gradientUnits="userSpaceOnUse" x1="21.4177" y1="16.0195" x2="30.0035" y2="16.0195">
		<stop  offset="0" style="stop-color:#652A9A"/>
		<stop  offset="1" style="stop-color:#292170"/>
	</linearGradient>
	<path style="fill:url(#SVGID_00000147925823087558831360000010258200595477029515_);" d="M28.48,17.56c1.4-2.53-0.92-5.3-3.66-4.61
		c-0.04,0.01-0.07,0-0.11-0.02l-0.91-0.73c-0.02-0.02-0.02-0.04-0.01-0.06c0-0.01,0.01-0.01,0.02-0.01c2.16-0.87,4.4-0.27,5.58,1.71
		c1.62,2.71-0.22,6.25-3.38,6.46c-2.96,0.2-5.15-2.47-4.48-5.33c0.01-0.04,0.03-0.05,0.07-0.02l0.86,0.71
		c0.03,0.03,0.05,0.06,0.05,0.11c-0.01,1.16,0.38,2.06,1.16,2.69C25.19,19.68,27.5,19.33,28.48,17.56z"/>
	
		<linearGradient id="SVGID_00000057840221678366777850000007793073918965155479_" gradientUnits="userSpaceOnUse" x1="2.389" y1="18.3657" x2="11.5968" y2="18.3657">
		<stop  offset="0" style="stop-color:#652A9A"/>
		<stop  offset="1" style="stop-color:#292170"/>
	</linearGradient>
	<path style="fill:url(#SVGID_00000057840221678366777850000007793073918965155479_);" d="M9.77,20.32
		c-0.75,0.04-1.13-0.33-1.84,0.19c-0.58,0.43-1,0.77-1.27,1.02c-0.38,0.37-0.4,0.89-0.44,1.38c-0.07,1.14-1.08,1.88-2.17,1.76
		c-2.52-0.27-2.17-4.4,0.91-3.77c0.76,0.15,1.53-0.56,2.17-1.14c0.61-0.55,0.76-1.33,0.5-2.09c-0.2-0.59-1.03-1.12-1.53-1.5
		c-0.69-0.52-1.02-0.23-1.75-0.22c-2.23,0.03-2.74-3.1-0.64-3.8c1.33-0.44,2.48,0.57,2.51,1.92c0.02,0.61,0.23,0.98,0.71,1.4
		c0.75,0.65,1.37,1.25,2.28,1.03C11.98,15.84,12.55,20.18,9.77,20.32z"/>
	
		<linearGradient id="SVGID_00000025438070319502829100000007306184096481840025_" gradientUnits="userSpaceOnUse" x1="12.0783" y1="23.0295" x2="24.6942" y2="23.0295">
		<stop  offset="0" style="stop-color:#652A9A"/>
		<stop  offset="1" style="stop-color:#292170"/>
	</linearGradient>
	<path style="fill:url(#SVGID_00000025438070319502829100000007306184096481840025_);" d="M15.9,25.22
		c0.22,1.41-0.79,2.67-2.25,2.39c-2.2-0.41-2.07-3.62,0.24-3.84c1-0.09,1.12-0.18,1.74-0.91c0.52-0.61,1.01-1.12,0.9-1.88
		c-0.06-0.41-0.09-0.61-0.09-0.61c-0.01-2.55,3.76-2.64,3.88-0.09c0,0.06-0.03,0.27-0.08,0.63c-0.09,0.59,0.07,0.95,0.45,1.43
		c0.67,0.86,0.97,1.39,2.1,1.43c1.42,0.05,2.29,1.46,1.74,2.72c-0.91,2.1-4.11,1.15-3.63-1.31c0.11-0.59-0.05-0.96-0.42-1.45
		c-0.77-1.01-1.24-1.65-2.53-1.43c-0.37,0.06-0.68,0.25-0.93,0.55C16.28,23.73,15.73,24.14,15.9,25.22z"/>
	
		<linearGradient id="SVGID_00000057862334146632536380000002796896399877607088_" gradientUnits="userSpaceOnUse" x1="9.7154" y1="25.6999" x2="18.2962" y2="25.6999">
		<stop  offset="0" style="stop-color:#652A9A"/>
		<stop  offset="1" style="stop-color:#292170"/>
	</linearGradient>
	<path style="fill:url(#SVGID_00000057862334146632536380000002796896399877607088_);" d="M10.83,25.52
		c-0.15,3.06,3.68,4.53,5.61,2.21c0.69-0.83,0.9-1.81,0.62-2.93c-0.01-0.04,0-0.07,0.02-0.1l0.72-0.89
		c0.03-0.04,0.06-0.03,0.07,0.01c1.43,3.1-1.01,6.56-4.46,6.13c-0.69-0.09-1.3-0.32-1.83-0.7c-3.89-2.76-1.25-8.84,3.46-7.73
		c0.05,0.01,0.05,0.03,0.02,0.07l-0.72,0.87c-0.03,0.03-0.07,0.05-0.11,0.05C12.45,22.47,10.92,23.71,10.83,25.52z"/>
</g>
</svg>
