<?xml version="1.0" encoding="utf-8"?>
<!-- Generator: Adobe Illustrator 27.1.1, SVG Export Plug-In . SVG Version: 6.00 Build 0)  -->
<svg version="1.1" id="Layer_1" xmlns="http://www.w3.org/2000/svg" xmlns:xlink="http://www.w3.org/1999/xlink" x="0px" y="0px"
	 viewBox="0 0 800 800" style="enable-background:new 0 0 800 800;" xml:space="preserve">
<style type="text/css">
	.st0{fill:url(#SVGID_1_);}
	.st1{fill:url(#SVGID_00000047060711542518713010000004426421538691605642_);}
</style>
<linearGradient id="SVGID_1_" gradientUnits="userSpaceOnUse" x1="34.8438" y1="366.9922" x2="734.6875" y2="366.9922">
	<stop  offset="0" style="stop-color:#652A9A"/>
	<stop  offset="1" style="stop-color:#292170"/>
</linearGradient>
<path class="st0" d="M384.8,717C191.8,717,34.8,560,34.8,367s157-350,349.9-350S734.7,174,734.7,367S577.7,717,384.8,717L384.8,717z
	 M384.8,83.7c-156.2,0-283.3,127.1-283.3,283.3s127.1,283.3,283.3,283.3S668,523.1,668,367S541,83.7,384.8,83.7L384.8,83.7z"/>
<linearGradient id="SVGID_00000083053500311259084950000004902734917908317623_" gradientUnits="userSpaceOnUse" x1="634.6679" y1="687.7637" x2="776.3476" y2="687.7637">
	<stop  offset="0" style="stop-color:#652A9A"/>
	<stop  offset="1" style="stop-color:#292170"/>
</linearGradient>
<path style="fill:url(#SVGID_00000083053500311259084950000004902734917908317623_);" d="M743,758.6c-8.5,0-17-3.3-23.6-9.8l-75-75
	c-13-13-13-34.1,0-47.1c13-13,34.1-13,47.1,0l75,75c13,13,13,34.1,0,47.1C760.2,755.4,751.6,758.6,743,758.6z"/>
</svg>
