<?xml version="1.0" encoding="utf-8"?>
<!-- Generator: Adobe Illustrator 27.1.1, SVG Export Plug-In . SVG Version: 6.00 Build 0)  -->
<svg version="1.1" id="Layer_1" xmlns="http://www.w3.org/2000/svg" xmlns:xlink="http://www.w3.org/1999/xlink" x="0px" y="0px"
	 viewBox="0 0 800 800" style="enable-background:new 0 0 800 800;" xml:space="preserve">
<style type="text/css">
	.st0{fill:url(#SVGID_1_);}
	.st1{fill:url(#SVGID_00000119827885930404441310000014391563721653894536_);}
</style>
<linearGradient id="SVGID_1_" gradientUnits="userSpaceOnUse" x1="66.6406" y1="400" x2="733.3593" y2="400">
	<stop  offset="0" style="stop-color:#652A9A"/>
	<stop  offset="1" style="stop-color:#292170"/>
</linearGradient>
<path class="st0" d="M632.3,800H167.7C112,800,66.6,754.7,66.6,698.9V101.1C66.6,45.3,112,0,167.7,0h464.5
	C688,0,733.4,45.3,733.4,101.1V699C733.4,754.7,688,800,632.3,800L632.3,800z M167.7,66.6c-19,0-34.4,15.5-34.4,34.4v597.9
	c0,19,15.5,34.4,34.4,34.4h464.5c19,0,34.4-15.5,34.4-34.4V101.1c0-19-15.5-34.4-34.4-34.4L167.7,66.6L167.7,66.6z"/>
<linearGradient id="SVGID_00000179645681993573354350000012500302128979327902_" gradientUnits="userSpaceOnUse" x1="66.6406" y1="505.5469" x2="733.3593" y2="505.5469">
	<stop  offset="0" style="stop-color:#652A9A"/>
	<stop  offset="1" style="stop-color:#292170"/>
</linearGradient>
<path style="fill:url(#SVGID_00000179645681993573354350000012500302128979327902_);" d="M333.4,800H166.6c-55.2,0-100-44.8-100-100
	V533.4h166.7c55.2,0,100,44.8,100,100V800z M133.4,600v100c0,18.4,14.9,33.3,33.3,33.3h100v-100c0-18.4-14.9-33.3-33.3-33.3H133.4z
	 M633.4,800H466.6V633.3c0-55.2,44.8-100,100-100h166.7V700C733.4,755.2,688.5,800,633.4,800L633.4,800z M533.4,733.4h100
	c18.4,0,33.3-14.9,33.3-33.3V600h-100c-18.4,0-33.3,14.9-33.3,33.3V733.4L533.4,733.4z M350,277.8H216.6
	c-18.4,0-33.4-14.9-33.4-33.4s14.9-33.4,33.4-33.4H350c18.4,0,33.4,14.9,33.4,33.4S368.4,277.8,350,277.8z M516.6,416.6h-300
	c-18.4,0-33.4-14.9-33.4-33.4s14.9-33.4,33.4-33.4h300c18.4,0,33.4,14.9,33.4,33.4S535.1,416.6,516.6,416.6z"/>
</svg>
