<?xml version="1.0" encoding="utf-8"?>
<!-- Generator: Adobe Illustrator 27.1.1, SVG Export Plug-In . SVG Version: 6.00 Build 0)  -->
<svg version="1.1" id="Layer_1" xmlns="http://www.w3.org/2000/svg" xmlns:xlink="http://www.w3.org/1999/xlink" x="0px" y="0px"
	 viewBox="0 0 800 800" style="enable-background:new 0 0 800 800;" xml:space="preserve">
<style type="text/css">
	.st0{fill:url(#SVGID_1_);}
	.st1{fill:url(#SVGID_00000057127078105849932430000013626020666278564535_);}
</style>
<linearGradient id="SVGID_1_" gradientUnits="userSpaceOnUse" x1="120.46" y1="663.66" x2="679.54" y2="663.66">
	<stop  offset="0" style="stop-color:#652A9A"/>
	<stop  offset="1" style="stop-color:#292170"/>
</linearGradient>
<path class="st0" d="M676.6,665.2c1.1-1,2-2,3-3.1C678.6,663.2,677.6,664.2,676.6,665.2z M120.5,662.1c0.9,1.1,1.9,2.1,3,3.1
	C122.4,664.2,121.4,663.2,120.5,662.1z"/>
<linearGradient id="SVGID_00000023280814305346148040000011089516678995040155_" gradientUnits="userSpaceOnUse" x1="16.64" y1="400" x2="783.36" y2="400">
	<stop  offset="0" style="stop-color:#652A9A"/>
	<stop  offset="1" style="stop-color:#292170"/>
</linearGradient>
<path style="fill:url(#SVGID_00000023280814305346148040000011089516678995040155_);" d="M400,16.6c-211.4,0-383.4,172-383.4,383.4
	c0,101.3,39.5,193.5,103.8,262.1c1,1.1,2,2.1,3,3.1c0,0,0,0,0.1,0.1c69.8,72.7,168,118.1,276.5,118.1S606.7,738,676.5,665.3
	c0,0,0,0,0.1-0.1c1-1,2-2.1,3-3.1c64.4-68.6,103.8-160.8,103.8-262.1C783.4,188.6,611.4,16.6,400,16.6z M400,716.6
	c-81.7,0-156.2-31.1-212.4-82c45.4-73.4,124.8-118,212.4-118c87.6,0,166.9,44.7,212.4,118C556.2,685.6,481.6,716.6,400,716.6z
	 M300,350c0-55.2,44.8-100,100-100s100,44.8,100,100s-44.8,100-100,100S300,405.2,300,350z M514.3,471.1
	c32.2-30.4,52.3-73.4,52.3-121.1c0-91.9-74.8-166.6-166.6-166.6c-91.9,0-166.6,74.8-166.6,166.6c0,47.7,20.1,90.7,52.3,121.1
	c-57.5,22.1-107.6,60.8-143.8,112C105,531.4,83.4,468.2,83.4,400c0-174.6,142-316.6,316.6-316.6s316.6,142,316.6,316.6
	c0,68.2-21.7,131.4-58.5,183.1C621.9,531.8,571.8,493.2,514.3,471.1z"/>
</svg>
